<svg width="20" height="20" viewBox="0 0 20 20" fill="none" xmlns="http://www.w3.org/2000/svg">
<path id="Vector" d="M16.6667 0H3.33333C1.44444 0 0 1.44444 0 3.33333V16.6667C0 18.5556 1.44444 20 3.33333 20H16.6667C18.5556 20 20 18.5556 20 16.6667V3.33333C20 1.44444 18.5556 0 16.6667 0ZM10 6.66667C11.8889 6.66667 13.3333 8.11111 13.3333 10C13.3333 11.8889 11.8889 13.3333 10 13.3333C8.11111 13.3333 6.66667 11.8889 6.66667 10C6.66667 8.11111 8.11111 6.66667 10 6.66667ZM14.2222 4.44444C14.2222 3.66667 14.8889 3.11111 15.5556 3.11111C16.2222 3.11111 16.8889 3.77778 16.8889 4.44444C16.8889 5.11111 16.3333 5.77778 15.5556 5.77778C14.7778 5.77778 14.2222 5.22222 14.2222 4.44444ZM16.6667 17.7778H3.33333C2.66667 17.7778 2.22222 17.3333 2.22222 16.6667V10H4.44444C4.44444 13.1111 6.88889 15.5556 10 15.5556C13.1111 15.5556 15.5556 13.1111 15.5556 10H17.7778V16.6667C17.7778 17.3333 17.3333 17.7778 16.6667 17.7778Z" fill="white"/>
</svg>
