<svg width="25" height="20" viewBox="0 0 25 20" fill="none" xmlns="http://www.w3.org/2000/svg">
<path id="Vector" d="M24.3478 2.36768C23.4362 2.77591 22.4692 3.04374 21.479 3.16224C22.522 2.53145 23.3024 1.53887 23.675 0.369473C22.6946 0.957734 21.6219 1.37197 20.5032 1.59422C20.0359 1.09033 19.4711 0.688831 18.8439 0.414601C18.2167 0.140372 17.5405 -0.000742813 16.8572 2.94046e-06C14.0987 2.94046e-06 11.862 2.26029 11.862 5.04922C11.862 5.44458 11.9063 5.83035 11.9916 6.20014C7.84001 5.98952 4.15952 3.97916 1.69574 0.923999C1.25152 1.6946 1.01809 2.57079 1.01941 3.46267C1.01875 4.29398 1.22126 5.11259 1.60893 5.84574C1.99661 6.5789 2.55745 7.20391 3.24161 7.66524C2.44851 7.63977 1.67288 7.42325 0.97925 7.03369C0.978618 7.05478 0.978618 7.07555 0.978618 7.09729C0.978618 9.54295 2.70029 11.5837 4.9851 12.0481C4.2494 12.2494 3.47803 12.2789 2.72938 12.1344C3.36493 14.1399 5.2096 15.6002 7.39544 15.6411C5.626 17.0447 3.44098 17.8061 1.19173 17.8027C0.788586 17.8027 0.391131 17.779 0 17.732C2.28397 19.2154 4.94215 20.0027 7.65694 20C16.8449 20 21.8692 12.3066 21.8692 5.63507C21.8692 5.41645 21.8641 5.19816 21.8546 4.98114C22.8331 4.2671 23.6774 3.38203 24.3478 2.36768Z" fill="white"/>
</svg>
